<svg width="82" height="82" viewBox="0 0 82 82" fill="none" xmlns="http://www.w3.org/2000/svg">
<rect x="0.245117" y="0.245361" width="81.5094" height="81.5094" rx="40.7547" fill="#FFC529"/>
<path fill-rule="evenodd" clip-rule="evenodd" d="M32.3609 30.0423C30.5192 30.4085 28.4748 32.3423 27.1016 35.0173C26.8468 35.5138 26.5314 36.1801 26.4008 36.4978C26.189 37.0132 26.1313 37.0755 25.8658 37.0755C25.5391 37.0755 24.7327 36.7946 24.7327 36.6807C24.7327 36.6414 24.5641 36.4187 24.3579 36.1859C23.2678 34.9546 21.3181 35.0026 21.2811 36.2616C21.2744 36.486 21.1815 36.5851 20.7946 36.7803C20.5315 36.913 19.8422 37.4746 19.2628 38.0282C17.6065 39.6108 16.9647 40.7428 16.8625 42.2623C16.7888 43.3564 17.019 44.0821 17.6462 44.7324C18.247 45.3555 18.8227 45.6185 19.6002 45.6255C21.0618 45.6386 22.193 44.8732 23.4087 43.0487C24.3785 41.5934 24.7218 40.6656 24.8197 39.2357L24.8886 38.2309L25.3562 38.2016L25.8238 38.1722L25.8268 39.3068C25.8293 40.269 25.8657 40.5177 26.0662 40.9437C26.5383 41.9469 27.1287 42.3154 28.2585 42.312C29.1316 42.3093 30.4016 41.9359 31.578 41.3361L32.448 40.8924L32.845 41.2392C33.3284 41.6614 33.8898 41.8206 34.9165 41.8263C36.1154 41.8329 37.3242 41.4179 38.7254 40.5183L39.2808 40.1618L39.705 40.6277C40.8744 41.9122 42.8497 41.4904 45.7404 39.339L46.2248 38.9785L46.0781 39.4496C45.7276 40.5757 45.9959 41.395 46.784 41.6052C47.6047 41.824 49.2864 41.3876 50.2927 40.6949C50.6772 40.43 50.7116 40.437 50.7116 40.7795C50.7116 41.146 51.0642 41.5816 51.5051 41.7597C52.3351 42.0951 53.5003 41.805 54.6226 40.9836C54.9923 40.7131 55.3042 40.4917 55.3154 40.4918C55.3266 40.4919 55.3359 40.873 55.3359 41.3387C55.3359 42.3185 55.4912 42.6177 56.174 42.9532C56.5006 43.1138 56.7815 43.1532 57.5701 43.1493C58.7762 43.1433 59.3652 42.9438 60.6714 42.0985C62.2233 41.0943 63.6283 39.4389 64.2525 37.8793C64.4183 37.4648 64.5655 37.1138 64.5795 37.0991C64.6423 37.0332 65.372 38.2956 65.4282 38.5674C65.486 38.847 65.413 38.9452 64.5064 39.807C62.8979 41.3359 62.0991 42.7521 61.967 44.3096C61.9047 45.0426 62.0488 45.9475 62.3136 46.487C62.5615 46.992 63.4462 47.8174 63.988 48.0492C64.9928 48.4788 66.3142 48.3435 67.4253 47.6969C68.2422 47.2216 69.5109 46.0394 70.123 45.1835C70.7898 44.2508 71.4208 43.0041 71.7664 41.9363L72.0305 41.1204L72.6719 41.3161C74.056 41.7385 75.1152 41.3721 75.6759 40.2768C75.9727 39.6971 76.1053 38.7861 75.903 38.7164C75.8413 38.6951 75.6075 38.8205 75.3834 38.9949C74.525 39.6633 73.4356 39.884 72.7321 39.5323C72.3425 39.3375 72.2554 39.109 72.2456 38.2552C72.2364 37.4639 72.0886 36.9536 71.7364 36.4977C71.2786 35.9051 70.5575 35.7098 69.9493 36.0139C69.5458 36.2156 69.3998 36.4135 69.2592 36.949L69.137 37.4142L68.4001 37.6055C67.7143 37.7835 67.6246 37.7859 67.1089 37.641C65.8496 37.287 64.9196 36.3815 64.803 35.3956C64.6729 34.2957 63.9605 33.5642 63.0158 33.5605C62.2461 33.5576 61.9949 34.0921 62.3882 34.8961C62.977 36.0995 63.0199 37.2732 62.513 38.3085C61.8855 39.5901 60.0444 40.8935 58.8619 40.8935C58.1558 40.8935 57.8624 40.7818 57.6739 40.4412C57.3036 39.7723 57.6189 38.9838 58.8232 37.5665C59.9676 36.2196 60.1126 35.9972 59.9608 35.8203C59.7963 35.6287 59.5131 35.6291 58.8418 35.8218C58.1691 36.0149 57.3181 36.7495 56.6377 37.7244C56.3647 38.1157 55.8171 38.7514 55.421 39.1371C54.3201 40.2093 53.3785 40.5583 52.8821 40.0784C52.4455 39.6562 52.7835 38.8583 54.0219 37.3883C55.5483 35.576 55.5564 35.5621 55.1869 35.3709C54.8267 35.1846 54.3047 35.2552 53.8128 35.5568C53.3388 35.8474 52.7654 36.5034 52.0032 37.6271C51.0558 39.0237 49.7062 40.0897 48.8854 40.0897C48.4318 40.0897 48.2686 39.8591 48.275 39.2271C48.2816 38.5704 48.8594 37.3911 49.7229 36.2717C50.0426 35.8572 50.5011 35.2593 50.7417 34.943L51.1793 34.3679L51.6988 34.4406C52.3747 34.5353 53.5962 34.5327 53.9571 34.4359C54.3044 34.3428 54.9722 33.7915 54.9722 33.5979C54.9722 33.4841 54.856 33.4715 54.3747 33.5329C53.6268 33.6283 52.093 33.6218 51.9905 33.5227C51.9483 33.4819 52.272 33.1101 52.7098 32.6962C53.9411 31.5324 53.9143 31.2968 52.5508 31.3005C51.4594 31.3035 50.9875 31.5396 50.2181 32.4674C49.6675 33.1314 49.6634 33.1339 49.2791 33.0476C48.5368 32.8808 47.2071 32.9379 46.7663 33.1553C46.3929 33.3394 46.1412 33.6946 46.2854 33.8341C46.3189 33.8665 46.9264 33.8826 47.6352 33.8697C48.3439 33.8569 48.9492 33.886 48.9803 33.9346C49.0769 34.0858 47.5126 36.2898 46.8357 36.9562C45.3151 38.4531 43.8256 39.3864 42.9572 39.3864C42.4268 39.3864 42.0453 39.2228 41.671 38.8348C41.4519 38.6077 41.4136 38.4762 41.4263 37.9963C41.4463 37.2416 41.7545 36.6126 42.3828 36.0443C43.0038 35.4827 43.5914 35.2798 44.057 35.4663C44.354 35.5852 44.4175 35.6934 44.4999 36.2203C44.5817 36.7437 45.3003 36.3222 45.6838 35.5261C46.7746 33.261 44.1333 32.7669 41.5975 34.7617C40.4637 35.6537 39.3295 37.484 39.2086 38.6173C39.1506 39.16 39.1329 39.1862 38.5629 39.5729C37.7819 40.1025 37.0358 40.3345 36.4067 40.2432C35.8093 40.1566 35.3321 39.7434 35.3321 39.3124C35.3321 39.0572 35.4482 38.9486 36.2933 38.4128C37.8818 37.4059 38.9299 36.2896 39.1212 35.401C39.2158 34.9619 39.0245 34.3474 38.7022 34.0547C38.4619 33.8365 38.3407 33.8101 37.5786 33.8101C36.796 33.8101 36.6549 33.843 35.8983 34.2018C34.0163 35.0946 32.2146 37.5089 32.2146 39.1381V39.6844L31.7211 39.9252C30.2866 40.6249 29.3619 40.647 28.6902 39.9977C28.2365 39.559 28.1218 39.1158 28.2684 38.3684C28.4087 37.6531 28.4976 37.5445 29.1141 37.3343C30.6116 36.8237 31.8242 36.0518 32.9346 34.9022C34.624 33.1531 35.2017 31.7727 34.641 30.825C34.2938 30.2383 33.2233 29.8709 32.3609 30.0423ZM56.3396 31.355C55.7749 31.5737 55.437 32.3039 55.6139 32.923C55.8961 33.9112 56.9183 34.1667 57.5974 33.4185C58.4503 32.4788 58.1267 31.2388 57.0325 31.2543C56.7852 31.2578 56.4735 31.3031 56.3396 31.355ZM17.7704 32.5052C17.0019 32.7075 15.6322 33.3661 14.9497 33.8616C12.2678 35.8081 9.82352 39.5807 9.18839 42.7533C8.96331 43.878 8.9338 46.0435 9.133 46.8215C9.57506 48.5478 10.8443 49.6678 12.6689 49.9416C14.0519 50.1491 16.1354 49.7894 17.6184 49.0871C19.0949 48.3881 20.3683 47.1128 20.3683 46.3332C20.3683 46.0767 20.1386 46.0515 19.9393 46.2863C19.8609 46.3787 19.4176 46.6265 18.9542 46.837C16.8466 47.7943 15.2287 47.7241 14.2072 46.6308C12.7347 45.0549 12.3839 42.1078 13.3926 39.7866C14.1664 38.0061 16.4089 35.6716 17.5118 35.4984C18.012 35.42 18.436 35.6189 18.7515 36.0799C18.9817 36.4163 19.0742 36.4726 19.3962 36.4726C19.6909 36.4726 19.846 36.397 20.1136 36.1227C20.5715 35.6532 20.7166 35.1824 20.6559 34.3627C20.5967 33.5628 20.2801 32.9435 19.7766 32.6426C19.3294 32.3754 18.4835 32.3174 17.7704 32.5052ZM32.4402 32.7204C32.8462 33.0756 32.5458 33.8375 31.6642 34.6889C31.1549 35.1807 30.0171 35.8698 29.7143 35.8698C29.5039 35.8698 29.2011 35.5565 29.2011 35.339C29.2011 34.7235 30.8006 32.8641 31.4962 32.6708C32.0219 32.5248 32.2291 32.5357 32.4402 32.7204ZM37.4936 35.5885C38.0109 36.0886 36.7572 37.6819 35.7182 37.845C34.957 37.9645 34.8251 37.5332 35.3587 36.6698C35.8819 35.8233 37.0989 35.2069 37.4936 35.5885ZM22.6793 38.0776C23.6936 38.8491 22.7922 41.6243 21.3551 42.1549C20.5323 42.4587 19.8666 42.144 19.4905 41.2735C19.281 40.7887 19.2869 40.6026 19.5331 39.9254C19.8117 39.159 20.4569 38.3592 21.01 38.0945C21.5907 37.8166 22.3263 37.8091 22.6793 38.0776ZM72.7942 38.3808C72.7586 38.4366 72.8024 38.4821 72.8915 38.4821C73.0023 38.4821 73.0535 38.5776 73.0535 38.7835C73.0535 38.9493 73.1003 39.085 73.1574 39.085C73.2146 39.085 73.2613 38.9456 73.2613 38.7752C73.2613 38.5719 73.306 38.4798 73.3912 38.5072C73.4627 38.5303 73.5211 38.6584 73.5211 38.7919C73.5211 38.9804 73.5792 39.0376 73.7809 39.048C73.9238 39.0552 74.0751 39.01 74.1171 38.9475C74.1716 38.8662 74.1939 38.8697 74.195 38.9594C74.1959 39.0285 74.2433 39.085 74.3005 39.085C74.4329 39.085 74.4376 38.4133 74.3057 38.3345C74.2514 38.3021 74.1506 38.3775 74.0816 38.5022C73.962 38.7181 73.9528 38.7196 73.8856 38.5344C73.8322 38.3871 73.699 38.3326 73.337 38.3098C73.0741 38.2932 72.8298 38.3252 72.7942 38.3808ZM69.1577 39.4306C69.7487 39.6693 69.9562 40.1032 69.9088 41.001C69.8754 41.6357 69.8021 41.8918 69.4662 42.5489C68.4463 44.5449 66.6999 45.2693 65.6075 44.1495C64.6836 43.2022 64.9495 41.715 66.2851 40.3611C67.262 39.3707 68.2318 39.0565 69.1577 39.4306ZM32.3498 44.1735C31.3578 44.5133 30.6588 45.6497 30.8166 46.6664C30.9665 47.6331 31.8389 48.456 32.8567 48.5909C33.8565 48.7235 34.9447 48.1547 35.3772 47.2735C35.6106 46.7979 35.5894 45.8021 35.3357 45.3212C34.7767 44.2618 33.5118 43.7755 32.3498 44.1735ZM27.6162 44.2463C25.8729 44.8735 25.5218 47.0225 26.9879 48.0915C27.7067 48.6155 28.8157 48.6602 29.5312 48.194C29.9623 47.9131 29.9872 47.5762 29.5977 47.2949C29.3323 47.1034 29.3014 47.1017 28.9585 47.259C28.7603 47.35 28.4253 47.4243 28.2139 47.4243C27.3455 47.4243 26.8962 46.3124 27.4893 45.6309C27.8132 45.2586 28.2214 45.1629 28.7862 45.3264C29.1656 45.4364 29.2621 45.4288 29.5781 45.2642C30.0586 45.0141 30.0131 44.7371 29.4416 44.4328C28.8916 44.14 28.1283 44.0621 27.6162 44.2463ZM37.0412 44.237C37.0133 44.3075 37.003 45.291 37.0186 46.4223L37.0467 48.4793L37.6442 48.5095C38.0065 48.5277 38.2469 48.498 38.2547 48.4341C38.2619 48.376 38.2795 48.2834 38.2937 48.2281C38.308 48.1729 38.3255 47.8564 38.3327 47.5248L38.3457 46.922H39.227C40.0684 46.922 40.1111 46.9111 40.1703 46.6829C40.2044 46.5514 40.2171 46.3141 40.1983 46.1554L40.1642 45.867L39.229 45.8168C38.3145 45.7676 38.2937 45.7609 38.2937 45.5153C38.2937 45.2666 38.3041 45.2636 39.3848 45.2139L40.4759 45.1637L40.5073 44.6362L40.5388 44.1087H38.8155C37.5132 44.1087 37.0797 44.14 37.0412 44.237ZM42.2011 44.2471C42.1183 44.3435 42.0908 45.0074 42.1104 46.4325L42.1386 48.4793L42.7881 48.5093L43.4375 48.5391V47.7306V46.922H44.3189C45.1603 46.922 45.203 46.9111 45.2622 46.6829C45.2963 46.5514 45.309 46.3141 45.2902 46.1554L45.2561 45.867L44.3468 45.8379L43.4375 45.8089V45.5149V45.2209L44.5027 45.1923L45.5678 45.1637L45.5992 44.6362L45.6307 44.1087H43.9753C42.6958 44.1087 42.2929 44.1401 42.2011 44.2471ZM47.4123 44.1739C47.3142 44.2132 47.2824 44.7415 47.2824 46.3301V48.4342L48.9191 48.4065L50.5558 48.3788L50.5876 47.9555L50.6193 47.5322L49.6004 47.5034L48.5814 47.4746V47.1732V46.8717L49.4387 46.8426L50.296 46.8134V46.3191V45.8249L49.4387 45.7957C48.5923 45.7669 48.581 45.7631 48.5488 45.494L48.5164 45.2216L49.4841 45.1926L50.4519 45.1637V44.6613V44.1589L48.997 44.1403C48.1969 44.1302 47.4838 44.1453 47.4123 44.1739ZM52.3167 44.3377C52.2887 44.4084 52.2785 45.3466 52.2941 46.4225L52.3223 48.3788H53.8811H55.4398L55.4715 47.9016L55.5032 47.4243H54.5103H53.5174V47.1269V46.8296L54.3747 46.8004L55.232 46.7713V46.3191V45.867L54.3804 45.8378C53.6419 45.8126 53.5202 45.7828 53.4644 45.6127C53.3534 45.2746 53.503 45.2139 54.4476 45.2139C55.4584 45.2139 55.4918 45.1928 55.4918 44.5526V44.2092H53.9298C52.7568 44.2092 52.3551 44.2412 52.3167 44.3377ZM33.6034 45.252C34.4281 45.5852 34.6501 46.4352 34.0772 47.066C33.1358 48.1027 31.5296 47.0397 32.1259 45.7745C32.1914 45.6355 32.4368 45.43 32.6715 45.3177C33.1782 45.0752 33.1677 45.076 33.6034 45.252Z" fill="black"/>
</svg>
