<svg width="18" height="20" viewBox="0 0 18 20" fill="none" xmlns="http://www.w3.org/2000/svg">
<path fill-rule="evenodd" clip-rule="evenodd" d="M17.5901 0.0985796C17.4819 -0.00247304 17.3426 -0.0282625 17.219 0.0322638L8.8814 4.03437L0.543764 0.0322638C0.419422 -0.0277362 0.280475 -0.00247304 0.172317 0.0985796C0.0645537 0.201737 -0.000183105 0.367001 -0.000183105 0.543316V15.007C-0.000183105 15.2365 0.107185 15.4396 0.269027 15.517L4.72245 17.6554C5.94574 16.137 7.16942 14.6181 8.39271 13.1007C8.00705 12.5486 7.62179 11.9954 7.23613 11.4444C6.42179 12.2223 5.21508 11.927 4.48955 10.7323C3.70955 9.47174 3.03613 7.21963 3.68784 6.297C4.38021 5.42753 6.06969 6.32647 7.01429 7.36595C7.91034 8.33384 8.13258 9.94121 7.54837 11.0275C7.96758 11.5475 8.46179 12.0502 8.8814 12.5717C9.27495 12.0833 9.59034 11.6149 9.98311 11.1281C9.65192 10.3728 9.8714 9.31542 10.411 8.71174C11.0276 8.02121 13.3155 5.40279 13.3778 5.48595C13.4386 5.56753 11.8348 7.58858 10.7627 9.02174L10.9415 9.25963C12.0859 7.92279 13.7015 5.91753 13.7635 5.99911C13.8243 6.08121 12.2698 8.16858 11.2336 9.64963L11.4113 9.88647C12.5205 8.50279 14.0852 6.43016 14.1472 6.51121C14.2084 6.59384 12.7048 8.74753 11.7018 10.2733L11.879 10.5096C12.9551 9.08068 14.4697 6.93963 14.5305 7.02226C14.5921 7.1049 12.1163 10.9744 12.1127 10.9802C12.1127 10.9796 12.6385 10.1575 12.1111 10.9781C11.6082 11.7638 10.8551 12.0017 10.2993 11.5486C9.9385 12.0654 9.5785 12.5817 9.21771 13.0981C10.456 14.6354 11.6939 16.1717 12.933 17.7091L17.4961 15.5186C17.658 15.4417 17.7653 15.2381 17.7653 15.0086V0.543316C17.7626 0.367001 17.6986 0.201737 17.5901 0.0985796ZM11.9402 18.1838L9.01995 19.5859C8.97495 19.6075 8.92837 19.6186 8.8814 19.6186C8.83482 19.6186 8.78824 19.6075 8.74324 19.5859L5.70534 18.1275C6.73758 16.648 7.84876 15.1591 8.8814 13.6807C9.92705 15.1775 10.8946 16.6849 11.9402 18.1838Z" fill="#FE724C"/>
</svg>
