<svg width="7" height="7" viewBox="0 0 7 7" fill="none" xmlns="http://www.w3.org/2000/svg">
<path d="M2.29169 0.63596C2.29169 0.577582 2.31488 0.521596 2.35616 0.480317C2.39744 0.439038 2.45342 0.415848 2.5118 0.415848H4.27269C4.33107 0.415848 4.38706 0.439038 4.42834 0.480317C4.46962 0.521596 4.49281 0.577582 4.49281 0.63596C4.49281 0.694337 4.46962 0.750323 4.42834 0.791602C4.38706 0.832881 4.33107 0.856072 4.27269 0.856072H2.5118C2.45342 0.856072 2.39744 0.832881 2.35616 0.791602C2.31488 0.750323 2.29169 0.694337 2.29169 0.63596Z" fill="#8F8F8F"/>
<path d="M3.39223 2.17674C3.33385 2.17674 3.27787 2.19993 3.23659 2.24121C3.19531 2.28249 3.17212 2.33848 3.17212 2.39685V4.15775C3.17212 4.21613 3.19531 4.27211 3.23659 4.31339C3.27787 4.35467 3.33385 4.37786 3.39223 4.37786C3.45061 4.37786 3.50659 4.35467 3.54787 4.31339C3.58915 4.27211 3.61234 4.21613 3.61234 4.15775V2.39685C3.61234 2.33848 3.58915 2.28249 3.54787 2.24121C3.50659 2.19993 3.45061 2.17674 3.39223 2.17674Z" fill="#8F8F8F"/>
<path d="M6.0336 3.93764C6.0336 4.63817 5.75532 5.31 5.25997 5.80535C4.76462 6.3007 4.09279 6.57898 3.39226 6.57898C2.69173 6.57898 2.0199 6.3007 1.52455 5.80535C1.0292 5.31 0.750916 4.63817 0.750916 3.93764C0.750916 3.23711 1.0292 2.56527 1.52455 2.06993C2.0199 1.57458 2.69173 1.2963 3.39226 1.2963C4.09279 1.2963 4.76462 1.57458 5.25997 2.06993C5.75532 2.56527 6.0336 3.23711 6.0336 3.93764V3.93764ZM5.59338 3.93764C5.59338 3.35387 5.36148 2.794 4.94869 2.38121C4.5359 1.96842 3.97603 1.73652 3.39226 1.73652C2.80849 1.73652 2.24862 1.96842 1.83583 2.38121C1.42304 2.794 1.19114 3.35387 1.19114 3.93764C1.19114 4.52141 1.42304 5.08128 1.83583 5.49407C2.24862 5.90686 2.80849 6.13876 3.39226 6.13876C3.97603 6.13876 4.5359 5.90686 4.94869 5.49407C5.36148 5.08128 5.59338 4.52141 5.59338 3.93764Z" fill="#8F8F8F"/>
<path d="M5.57265 1.13865C5.55234 1.11763 5.52806 1.10086 5.5012 1.08933C5.47435 1.07779 5.44546 1.07172 5.41624 1.07147C5.38701 1.07121 5.35803 1.07678 5.33098 1.08785C5.30393 1.09892 5.27935 1.11526 5.25868 1.13593C5.23802 1.15659 5.22167 1.18117 5.2106 1.20822C5.19954 1.23527 5.19397 1.26426 5.19422 1.29348C5.19448 1.32271 5.20055 1.35159 5.21208 1.37845C5.22362 1.4053 5.24039 1.42959 5.26141 1.44989L5.87905 2.06753C5.89935 2.08855 5.92364 2.10532 5.95049 2.11685C5.97735 2.12839 6.00623 2.13446 6.03546 2.13472C6.06468 2.13497 6.09367 2.1294 6.12072 2.11833C6.14777 2.10727 6.17235 2.09092 6.19301 2.07026C6.21368 2.04959 6.23002 2.02501 6.24109 1.99796C6.25216 1.97091 6.25773 1.94193 6.25747 1.9127C6.25722 1.88347 6.25115 1.85459 6.23961 1.82774C6.22808 1.80088 6.21131 1.77659 6.19028 1.75629L5.57265 1.13865Z" fill="#8F8F8F"/>
</svg>
