<svg width="7" height="7" viewBox="0 0 7 7" fill="none" xmlns="http://www.w3.org/2000/svg">
<g clip-path="url(#clip0_1262_1721)">
<path d="M3.16873 0.415848C1.46699 0.415848 0.0871582 1.79567 0.0871582 3.49742C0.0871582 5.19916 1.46699 6.57898 3.16873 6.57898C4.87047 6.57898 6.25029 5.19916 6.25029 3.49742C6.25029 1.79567 4.87047 0.415848 3.16873 0.415848ZM3.16873 6.05622C1.75588 6.05622 0.609924 4.91026 0.609924 3.49742C0.609924 2.08457 1.75588 0.938614 3.16873 0.938614C4.58157 0.938614 5.72753 2.08457 5.72753 3.49742C5.72753 4.91026 4.58157 6.05622 3.16873 6.05622Z" fill="#8F8F8F"/>
<path d="M2.83856 2.28679C2.83856 2.37435 2.87335 2.45833 2.93527 2.52025C2.99719 2.58217 3.08117 2.61696 3.16874 2.61696C3.2563 2.61696 3.34028 2.58217 3.4022 2.52025C3.46412 2.45833 3.49891 2.37435 3.49891 2.28679C3.49891 2.19922 3.46412 2.11524 3.4022 2.05332C3.34028 1.9914 3.2563 1.95662 3.16874 1.95662C3.08117 1.95662 2.99719 1.9914 2.93527 2.05332C2.87335 2.11524 2.83856 2.19922 2.83856 2.28679V2.28679ZM3.33382 3.05718H3.00365C2.97338 3.05718 2.94862 3.08194 2.94862 3.11221V4.98316C2.94862 5.01342 2.97338 5.03819 3.00365 5.03819H3.33382C3.36409 5.03819 3.38885 5.01342 3.38885 4.98316V3.11221C3.38885 3.08194 3.36409 3.05718 3.33382 3.05718Z" fill="#8F8F8F"/>
</g>
<defs>
<clipPath id="clip0_1262_1721">
<rect width="6.16314" height="6.16314" fill="white" transform="translate(0.0871582 0.415848)"/>
</clipPath>
</defs>
</svg>
